<?xml version="1.0" ?>
<!-- Uploaded to: SVG Repo, www.svgrepo.com, Generator: SVG Repo Mixer Tools -->
<svg width="800px" height="800px" viewBox="0 0 80 80" enable-background="new 0 0 80 80" id="Layer_1" version="1.1" xml:space="preserve" xmlns="http://www.w3.org/2000/svg" xmlns:xlink="http://www.w3.org/1999/xlink">
<g>
<g>
<line fill="none" stroke="#000000" stroke-linecap="round" stroke-linejoin="round" stroke-miterlimit="10" stroke-width="4" x1="40" x2="40" y1="39" y2="62.384"/>
<circle cx="40" cy="35" fill="none" r="4" stroke="#000000" stroke-linecap="round" stroke-linejoin="round" stroke-miterlimit="10" stroke-width="4"/>
<path d="    M40,31V11.401c0-2.981-4.354-3.29-4.776-0.339l-1.056,8.572c-0.109,0.885,0.081,1.782,0.54,2.547L40,31z" fill="none" stroke="#000000" stroke-linecap="round" stroke-linejoin="round" stroke-miterlimit="10" stroke-width="4"/>
<path d="    M36.536,37l-16.974,9.8c-2.581,1.49-0.672,5.416,2.094,4.306l7.952-3.372c0.821-0.348,1.503-0.961,1.936-1.741L36.536,37z" fill="none" stroke="#000000" stroke-linecap="round" stroke-linejoin="round" stroke-miterlimit="10" stroke-width="4"/>
<path d="    M43.464,37l16.974,9.8c2.581,1.49,5.026-2.126,2.682-3.966l-6.896-5.201c-0.712-0.537-1.584-0.821-2.476-0.806L43.464,37z" fill="none" stroke="#000000" stroke-linecap="round" stroke-linejoin="round" stroke-miterlimit="10" stroke-width="4"/>
</g>
<path d="   M20,62.384c13.333-5.6,26.667,5.6,40,0" fill="none" stroke="#000000" stroke-linecap="round" stroke-linejoin="round" stroke-miterlimit="10" stroke-width="4"/>
<path d="   M20,69.384c13.333-5.6,26.667,5.6,40,0" fill="none" stroke="#000000" stroke-linecap="round" stroke-linejoin="round" stroke-miterlimit="10" stroke-width="4"/>
</g>
</svg>